<mxfile host="app.diagrams.net" modified="2024-05-27T11:17:06.276Z" agent="Mozilla/5.0 (Windows NT 10.0; Win64; x64) AppleWebKit/537.36 (KHTML, like Gecko) Chrome/125.0.0.0 Safari/537.36" etag="lc0FuTdhXYC3ZAHhg1uj" version="24.4.8" type="device">
  <diagram name="PÃ¡gina-1" id="gZ3phAvSErZO_Ow_-_GL">
    <mxGraphModel dx="1194" dy="726" grid="1" gridSize="10" guides="1" tooltips="1" connect="1" arrows="1" fold="1" page="1" pageScale="1" pageWidth="827" pageHeight="1169" math="0" shadow="0">
      <root>
        <mxCell id="0" />
        <mxCell id="1" parent="0" />
        <mxCell id="LzCHmXY_IpvcyLS0fZqK-8" style="edgeStyle=orthogonalEdgeStyle;rounded=0;orthogonalLoop=1;jettySize=auto;html=1;exitX=0.5;exitY=1;exitDx=0;exitDy=0;entryX=0.5;entryY=0;entryDx=0;entryDy=0;" parent="1" source="LzCHmXY_IpvcyLS0fZqK-1" target="LzCHmXY_IpvcyLS0fZqK-3" edge="1">
          <mxGeometry relative="1" as="geometry" />
        </mxCell>
        <mxCell id="LzCHmXY_IpvcyLS0fZqK-1" value="1" style="ellipse;whiteSpace=wrap;html=1;aspect=fixed;" parent="1" vertex="1">
          <mxGeometry x="200" y="280" width="40" height="40" as="geometry" />
        </mxCell>
        <mxCell id="LzCHmXY_IpvcyLS0fZqK-2" value="inicio" style="text;html=1;align=center;verticalAlign=middle;resizable=0;points=[];autosize=1;strokeColor=none;fillColor=none;" parent="1" vertex="1">
          <mxGeometry x="240" y="250" width="50" height="30" as="geometry" />
        </mxCell>
        <mxCell id="LzCHmXY_IpvcyLS0fZqK-3" value="2" style="ellipse;whiteSpace=wrap;html=1;aspect=fixed;" parent="1" vertex="1">
          <mxGeometry x="200" y="360" width="40" height="40" as="geometry" />
        </mxCell>
        <mxCell id="LzCHmXY_IpvcyLS0fZqK-4" value="pos=0" style="text;html=1;align=center;verticalAlign=middle;resizable=0;points=[];autosize=1;strokeColor=none;fillColor=none;" parent="1" vertex="1">
          <mxGeometry x="240" y="348" width="60" height="30" as="geometry" />
        </mxCell>
        <mxCell id="LzCHmXY_IpvcyLS0fZqK-6" value="" style="endArrow=classic;html=1;rounded=0;exitX=0.5;exitY=1;exitDx=0;exitDy=0;entryX=0.5;entryY=0;entryDx=0;entryDy=0;" parent="1" source="LzCHmXY_IpvcyLS0fZqK-3" target="LzCHmXY_IpvcyLS0fZqK-5" edge="1">
          <mxGeometry width="50" height="50" relative="1" as="geometry">
            <mxPoint x="260" y="430" as="sourcePoint" />
            <mxPoint x="310" y="380" as="targetPoint" />
          </mxGeometry>
        </mxCell>
        <mxCell id="LzCHmXY_IpvcyLS0fZqK-7" value="True pos=0" style="text;html=1;align=center;verticalAlign=middle;resizable=0;points=[];autosize=1;strokeColor=none;fillColor=none;" parent="1" vertex="1">
          <mxGeometry x="115" y="410" width="80" height="30" as="geometry" />
        </mxCell>
        <mxCell id="LzCHmXY_IpvcyLS0fZqK-13" style="edgeStyle=orthogonalEdgeStyle;rounded=0;orthogonalLoop=1;jettySize=auto;html=1;exitX=1;exitY=0.5;exitDx=0;exitDy=0;" parent="1" source="LzCHmXY_IpvcyLS0fZqK-5" edge="1">
          <mxGeometry relative="1" as="geometry">
            <mxPoint x="360" y="500" as="targetPoint" />
            <Array as="points">
              <mxPoint x="330" y="500" />
              <mxPoint x="330" y="500" />
            </Array>
          </mxGeometry>
        </mxCell>
        <mxCell id="LzCHmXY_IpvcyLS0fZqK-10" value="3" style="ellipse;whiteSpace=wrap;html=1;aspect=fixed;" parent="1" vertex="1">
          <mxGeometry x="130" y="480" width="40" height="40" as="geometry" />
        </mxCell>
        <mxCell id="LzCHmXY_IpvcyLS0fZqK-11" value="" style="endArrow=classic;html=1;rounded=0;exitX=0.5;exitY=1;exitDx=0;exitDy=0;entryX=0.5;entryY=0;entryDx=0;entryDy=0;" parent="1" source="LzCHmXY_IpvcyLS0fZqK-3" target="LzCHmXY_IpvcyLS0fZqK-10" edge="1">
          <mxGeometry width="50" height="50" relative="1" as="geometry">
            <mxPoint x="230" y="410" as="sourcePoint" />
            <mxPoint x="150" y="490" as="targetPoint" />
          </mxGeometry>
        </mxCell>
        <mxCell id="LzCHmXY_IpvcyLS0fZqK-12" value="&lt;span style=&quot;color: rgb(0, 0, 0); font-family: Helvetica; font-size: 12px; font-style: normal; font-variant-ligatures: normal; font-variant-caps: normal; font-weight: 400; letter-spacing: normal; orphans: 2; text-align: center; text-indent: 0px; text-transform: none; widows: 2; word-spacing: 0px; -webkit-text-stroke-width: 0px; white-space: nowrap; background-color: rgb(251, 251, 251); text-decoration-thickness: initial; text-decoration-style: initial; text-decoration-color: initial; display: inline !important; float: none;&quot;&gt;False pos!=0&lt;/span&gt;" style="text;whiteSpace=wrap;html=1;" parent="1" vertex="1">
          <mxGeometry x="280" y="410" width="90" height="40" as="geometry" />
        </mxCell>
        <mxCell id="LzCHmXY_IpvcyLS0fZqK-14" value="&lt;span style=&quot;color: rgb(0, 0, 0); font-family: Helvetica; font-size: 12px; font-style: normal; font-variant-ligatures: normal; font-variant-caps: normal; font-weight: 400; letter-spacing: normal; orphans: 2; text-align: center; text-indent: 0px; text-transform: none; widows: 2; word-spacing: 0px; -webkit-text-stroke-width: 0px; white-space: nowrap; background-color: rgb(251, 251, 251); text-decoration-thickness: initial; text-decoration-style: initial; text-decoration-color: initial; display: inline !important; float: none;&quot;&gt;True p&amp;lt;=2&lt;/span&gt;" style="text;whiteSpace=wrap;html=1;" parent="1" vertex="1">
          <mxGeometry x="210" y="470" width="90" height="40" as="geometry" />
        </mxCell>
        <mxCell id="LzCHmXY_IpvcyLS0fZqK-18" value="5" style="ellipse;whiteSpace=wrap;html=1;aspect=fixed;" parent="1" vertex="1">
          <mxGeometry x="70" y="698" width="40" height="40" as="geometry" />
        </mxCell>
        <mxCell id="LzCHmXY_IpvcyLS0fZqK-19" value="" style="endArrow=classic;html=1;rounded=0;entryX=0.5;entryY=0;entryDx=0;entryDy=0;" parent="1" target="LzCHmXY_IpvcyLS0fZqK-18" edge="1">
          <mxGeometry width="50" height="50" relative="1" as="geometry">
            <mxPoint x="150" y="520" as="sourcePoint" />
            <mxPoint x="220" y="690" as="targetPoint" />
          </mxGeometry>
        </mxCell>
        <mxCell id="LzCHmXY_IpvcyLS0fZqK-20" value="6" style="ellipse;whiteSpace=wrap;html=1;aspect=fixed;" parent="1" vertex="1">
          <mxGeometry x="200" y="698" width="40" height="40" as="geometry" />
        </mxCell>
        <mxCell id="LzCHmXY_IpvcyLS0fZqK-22" value="" style="endArrow=classic;html=1;rounded=0;entryX=0.5;entryY=0;entryDx=0;entryDy=0;exitX=0.5;exitY=1;exitDx=0;exitDy=0;" parent="1" source="LzCHmXY_IpvcyLS0fZqK-10" target="LzCHmXY_IpvcyLS0fZqK-20" edge="1">
          <mxGeometry width="50" height="50" relative="1" as="geometry">
            <mxPoint x="164.14213562373106" y="614.1421356237311" as="sourcePoint" />
            <mxPoint x="230" y="730" as="targetPoint" />
          </mxGeometry>
        </mxCell>
        <mxCell id="PxOoWm7bmnd-rGSn8zkG-4" style="edgeStyle=orthogonalEdgeStyle;rounded=0;orthogonalLoop=1;jettySize=auto;html=1;exitX=0;exitY=0.5;exitDx=0;exitDy=0;entryX=1;entryY=0.5;entryDx=0;entryDy=0;" edge="1" parent="1" source="LzCHmXY_IpvcyLS0fZqK-5" target="LzCHmXY_IpvcyLS0fZqK-10">
          <mxGeometry relative="1" as="geometry" />
        </mxCell>
        <mxCell id="LzCHmXY_IpvcyLS0fZqK-5" value="4" style="ellipse;whiteSpace=wrap;html=1;aspect=fixed;" parent="1" vertex="1">
          <mxGeometry x="320" y="480" width="40" height="40" as="geometry" />
        </mxCell>
        <mxCell id="LzCHmXY_IpvcyLS0fZqK-26" value="True p=0" style="text;html=1;align=center;verticalAlign=middle;resizable=0;points=[];autosize=1;strokeColor=none;fillColor=none;" parent="1" vertex="1">
          <mxGeometry x="45" y="620" width="70" height="30" as="geometry" />
        </mxCell>
        <mxCell id="LzCHmXY_IpvcyLS0fZqK-27" value="False p!=0" style="text;html=1;align=center;verticalAlign=middle;resizable=0;points=[];autosize=1;strokeColor=none;fillColor=none;" parent="1" vertex="1">
          <mxGeometry x="175" y="585" width="80" height="30" as="geometry" />
        </mxCell>
        <mxCell id="LzCHmXY_IpvcyLS0fZqK-28" value="12" style="ellipse;whiteSpace=wrap;html=1;aspect=fixed;" parent="1" vertex="1">
          <mxGeometry x="215" y="860" width="40" height="40" as="geometry" />
        </mxCell>
        <mxCell id="LzCHmXY_IpvcyLS0fZqK-29" value="" style="endArrow=classic;html=1;rounded=0;exitX=0.5;exitY=1;exitDx=0;exitDy=0;entryX=0.5;entryY=0;entryDx=0;entryDy=0;" parent="1" source="LzCHmXY_IpvcyLS0fZqK-18" target="LzCHmXY_IpvcyLS0fZqK-28" edge="1">
          <mxGeometry width="50" height="50" relative="1" as="geometry">
            <mxPoint x="150" y="828" as="sourcePoint" />
            <mxPoint x="200" y="778" as="targetPoint" />
          </mxGeometry>
        </mxCell>
        <mxCell id="LzCHmXY_IpvcyLS0fZqK-30" value="" style="endArrow=classic;html=1;rounded=0;exitX=0.5;exitY=1;exitDx=0;exitDy=0;entryX=0.5;entryY=0;entryDx=0;entryDy=0;" parent="1" source="LzCHmXY_IpvcyLS0fZqK-20" target="LzCHmXY_IpvcyLS0fZqK-28" edge="1">
          <mxGeometry width="50" height="50" relative="1" as="geometry">
            <mxPoint x="100" y="748" as="sourcePoint" />
            <mxPoint x="165" y="788" as="targetPoint" />
          </mxGeometry>
        </mxCell>
        <mxCell id="LzCHmXY_IpvcyLS0fZqK-31" value="7" style="ellipse;whiteSpace=wrap;html=1;aspect=fixed;" parent="1" vertex="1">
          <mxGeometry x="380" y="580" width="40" height="40" as="geometry" />
        </mxCell>
        <mxCell id="LzCHmXY_IpvcyLS0fZqK-33" value="nueva_pos=2&lt;div&gt;n1=1&lt;/div&gt;&lt;div&gt;n2=1&lt;/div&gt;" style="text;html=1;align=center;verticalAlign=middle;resizable=0;points=[];autosize=1;strokeColor=none;fillColor=none;" parent="1" vertex="1">
          <mxGeometry x="400" y="560" width="100" height="60" as="geometry" />
        </mxCell>
        <mxCell id="LzCHmXY_IpvcyLS0fZqK-35" value="" style="endArrow=classic;html=1;rounded=0;entryX=0.5;entryY=0;entryDx=0;entryDy=0;exitX=0.5;exitY=1;exitDx=0;exitDy=0;" parent="1" source="LzCHmXY_IpvcyLS0fZqK-5" target="LzCHmXY_IpvcyLS0fZqK-31" edge="1">
          <mxGeometry width="50" height="50" relative="1" as="geometry">
            <mxPoint x="280" y="630" as="sourcePoint" />
            <mxPoint x="330" y="580" as="targetPoint" />
          </mxGeometry>
        </mxCell>
        <mxCell id="LzCHmXY_IpvcyLS0fZqK-36" value="9" style="ellipse;whiteSpace=wrap;html=1;aspect=fixed;" parent="1" vertex="1">
          <mxGeometry x="360" y="795.9" width="40" height="40" as="geometry" />
        </mxCell>
        <mxCell id="LzCHmXY_IpvcyLS0fZqK-37" value="" style="endArrow=classic;html=1;rounded=0;entryX=0.5;entryY=0;entryDx=0;entryDy=0;exitX=0.5;exitY=1;exitDx=0;exitDy=0;" parent="1" target="LzCHmXY_IpvcyLS0fZqK-36" edge="1">
          <mxGeometry width="50" height="50" relative="1" as="geometry">
            <mxPoint x="420" y="705.9" as="sourcePoint" />
            <mxPoint x="430" y="675.9" as="targetPoint" />
          </mxGeometry>
        </mxCell>
        <mxCell id="LzCHmXY_IpvcyLS0fZqK-49" style="edgeStyle=orthogonalEdgeStyle;rounded=0;orthogonalLoop=1;jettySize=auto;html=1;exitX=0.5;exitY=1;exitDx=0;exitDy=0;entryX=0.5;entryY=0;entryDx=0;entryDy=0;" parent="1" source="LzCHmXY_IpvcyLS0fZqK-38" target="LzCHmXY_IpvcyLS0fZqK-48" edge="1">
          <mxGeometry relative="1" as="geometry" />
        </mxCell>
        <mxCell id="LzCHmXY_IpvcyLS0fZqK-38" value="10" style="ellipse;whiteSpace=wrap;html=1;aspect=fixed;" parent="1" vertex="1">
          <mxGeometry x="440" y="795.9" width="40" height="40" as="geometry" />
        </mxCell>
        <mxCell id="LzCHmXY_IpvcyLS0fZqK-39" value="" style="endArrow=classic;html=1;rounded=0;entryX=0.5;entryY=0;entryDx=0;entryDy=0;" parent="1" target="LzCHmXY_IpvcyLS0fZqK-38" edge="1">
          <mxGeometry width="50" height="50" relative="1" as="geometry">
            <mxPoint x="420" y="705.9" as="sourcePoint" />
            <mxPoint x="390" y="805.9" as="targetPoint" />
          </mxGeometry>
        </mxCell>
        <mxCell id="LzCHmXY_IpvcyLS0fZqK-40" value="True&amp;nbsp;&lt;div&gt;nueva_pos=pos&lt;/div&gt;" style="text;html=1;align=center;verticalAlign=middle;resizable=0;points=[];autosize=1;strokeColor=none;fillColor=none;" parent="1" vertex="1">
          <mxGeometry x="300" y="725.9" width="110" height="40" as="geometry" />
        </mxCell>
        <mxCell id="LzCHmXY_IpvcyLS0fZqK-41" value="False&lt;div&gt;nueva_pos!=pos&lt;/div&gt;" style="text;html=1;align=center;verticalAlign=middle;resizable=0;points=[];autosize=1;strokeColor=none;fillColor=none;" parent="1" vertex="1">
          <mxGeometry x="440" y="725.9" width="110" height="40" as="geometry" />
        </mxCell>
        <mxCell id="LzCHmXY_IpvcyLS0fZqK-43" value="1" style="text;html=1;align=center;verticalAlign=middle;resizable=0;points=[];autosize=1;strokeColor=none;fillColor=none;" parent="1" vertex="1">
          <mxGeometry x="240" y="688" width="30" height="30" as="geometry" />
        </mxCell>
        <mxCell id="LzCHmXY_IpvcyLS0fZqK-44" value="0" style="text;html=1;align=center;verticalAlign=middle;resizable=0;points=[];autosize=1;strokeColor=none;fillColor=none;" parent="1" vertex="1">
          <mxGeometry x="40" y="688" width="30" height="30" as="geometry" />
        </mxCell>
        <mxCell id="LzCHmXY_IpvcyLS0fZqK-46" value="" style="endArrow=classic;html=1;rounded=0;entryX=1;entryY=0;entryDx=0;entryDy=0;exitX=0.5;exitY=1;exitDx=0;exitDy=0;" parent="1" source="LzCHmXY_IpvcyLS0fZqK-36" target="LzCHmXY_IpvcyLS0fZqK-28" edge="1">
          <mxGeometry width="50" height="50" relative="1" as="geometry">
            <mxPoint x="360" y="845.9" as="sourcePoint" />
            <mxPoint x="340" y="875.9" as="targetPoint" />
          </mxGeometry>
        </mxCell>
        <mxCell id="LzCHmXY_IpvcyLS0fZqK-47" value="sol" style="text;html=1;align=center;verticalAlign=middle;resizable=0;points=[];autosize=1;strokeColor=none;fillColor=none;" parent="1" vertex="1">
          <mxGeometry x="305" y="810" width="40" height="30" as="geometry" />
        </mxCell>
        <mxCell id="LzCHmXY_IpvcyLS0fZqK-51" style="edgeStyle=orthogonalEdgeStyle;rounded=0;orthogonalLoop=1;jettySize=auto;html=1;exitX=1;exitY=0.5;exitDx=0;exitDy=0;entryX=1;entryY=1;entryDx=0;entryDy=0;" parent="1" source="LzCHmXY_IpvcyLS0fZqK-48" edge="1">
          <mxGeometry relative="1" as="geometry">
            <Array as="points">
              <mxPoint x="550" y="925.9" />
              <mxPoint x="550" y="699.9" />
            </Array>
            <mxPoint x="434.14213562373106" y="700.042135623731" as="targetPoint" />
          </mxGeometry>
        </mxCell>
        <mxCell id="LzCHmXY_IpvcyLS0fZqK-48" value="11" style="ellipse;whiteSpace=wrap;html=1;aspect=fixed;" parent="1" vertex="1">
          <mxGeometry x="440" y="905.9" width="40" height="40" as="geometry" />
        </mxCell>
        <mxCell id="LzCHmXY_IpvcyLS0fZqK-50" value="sol = n1 + n2&lt;div&gt;nueva_pos++&lt;/div&gt;&lt;div&gt;n1=n2&lt;/div&gt;&lt;div&gt;n2=sol&lt;/div&gt;" style="text;html=1;align=center;verticalAlign=middle;resizable=0;points=[];autosize=1;strokeColor=none;fillColor=none;" parent="1" vertex="1">
          <mxGeometry x="413" y="945.9" width="100" height="70" as="geometry" />
        </mxCell>
        <mxCell id="LzCHmXY_IpvcyLS0fZqK-52" value="&lt;div&gt;Complejidad ciclomÃ¡tica: aristas(lÃ­nea)-Nodos(circulo)+2&lt;/div&gt;V(G)=(15-12)+2=5&lt;div&gt;&lt;span style=&quot;background-color: initial;&quot;&gt;Complejidad ciclomÃ¡tica: Nodos Predicados(circulo con dos salidas)+1&lt;/span&gt;&lt;div&gt;V(G)=(4)+1=5&lt;/div&gt;&lt;div&gt;V(G)=Numero De Regiones = 5&lt;/div&gt;&lt;div&gt;&lt;br&gt;&lt;/div&gt;&lt;/div&gt;" style="text;html=1;align=center;verticalAlign=middle;whiteSpace=wrap;rounded=0;" parent="1" vertex="1">
          <mxGeometry x="105" y="1035.9" width="470" height="80" as="geometry" />
        </mxCell>
        <mxCell id="PxOoWm7bmnd-rGSn8zkG-5" value="False pos!&amp;lt;=2" style="text;html=1;align=center;verticalAlign=middle;resizable=0;points=[];autosize=1;strokeColor=none;fillColor=none;" vertex="1" parent="1">
          <mxGeometry x="360" y="510" width="100" height="30" as="geometry" />
        </mxCell>
        <mxCell id="PxOoWm7bmnd-rGSn8zkG-6" value="8" style="ellipse;whiteSpace=wrap;html=1;aspect=fixed;" vertex="1" parent="1">
          <mxGeometry x="394" y="670" width="40" height="40" as="geometry" />
        </mxCell>
        <mxCell id="PxOoWm7bmnd-rGSn8zkG-8" value="nueva_pos = pos" style="text;html=1;align=center;verticalAlign=middle;resizable=0;points=[];autosize=1;strokeColor=none;fillColor=none;" vertex="1" parent="1">
          <mxGeometry x="430" y="658" width="120" height="30" as="geometry" />
        </mxCell>
        <mxCell id="PxOoWm7bmnd-rGSn8zkG-9" value="" style="endArrow=classic;html=1;rounded=0;entryX=0.5;entryY=0;entryDx=0;entryDy=0;exitX=0.5;exitY=1;exitDx=0;exitDy=0;" edge="1" parent="1" source="LzCHmXY_IpvcyLS0fZqK-31" target="PxOoWm7bmnd-rGSn8zkG-6">
          <mxGeometry width="50" height="50" relative="1" as="geometry">
            <mxPoint x="250" y="760" as="sourcePoint" />
            <mxPoint x="300" y="710" as="targetPoint" />
          </mxGeometry>
        </mxCell>
      </root>
    </mxGraphModel>
  </diagram>
</mxfile>
